<svg preserveAspectRatio="none" width="100%" height="100%" overflow="visible" style="display: block;" viewBox="0 0 20.3343 14.8833" fill="none" xmlns="http://www.w3.org/2000/svg">
<g id="Icon">
<path d="M18.9505 3.01667C18.8515 2.62117 18.6499 2.25881 18.366 1.96617C18.0822 1.67353 17.7261 1.46099 17.3338 1.35C15.9005 1 10.1671 1 10.1671 1C10.1671 1 4.43381 1 3.00048 1.38333C2.60818 1.49432 2.25212 1.70687 1.96827 1.99951C1.68441 2.29214 1.4828 2.65451 1.38381 3.05C1.12149 4.50463 0.993173 5.98026 1.00048 7.45833C0.991126 8.94754 1.11945 10.4344 1.38381 11.9C1.49294 12.2832 1.69907 12.6318 1.98226 12.9121C2.26546 13.1923 2.61616 13.3948 3.00048 13.5C4.43381 13.8833 10.1671 13.8833 10.1671 13.8833C10.1671 13.8833 15.9005 13.8833 17.3338 13.5C17.7261 13.389 18.0822 13.1765 18.366 12.8838C18.6499 12.5912 18.8515 12.2288 18.9505 11.8333C19.2108 10.3897 19.3391 8.92528 19.3338 7.45833C19.3432 5.96913 19.2148 4.48225 18.9505 3.01667Z" stroke="var(--stroke-0, #1E1E1E)" stroke-width="2" stroke-linecap="round" stroke-linejoin="round"/>
<path d="M8.29214 10.1833L13.0838 7.45833L8.29214 4.73333V10.1833Z" stroke="var(--stroke-0, #1E1E1E)" stroke-width="2" stroke-linecap="round" stroke-linejoin="round"/>
</g>
</svg>
